<?xml version="1.0" encoding="utf-8"?>
<!-- Generator: Adobe Illustrator 27.2.0, SVG Export Plug-In . SVG Version: 6.00 Build 0)  -->
<svg version="1.1" id="Layer_1" xmlns="http://www.w3.org/2000/svg" xmlns:xlink="http://www.w3.org/1999/xlink" x="0px" y="0px"
	 viewBox="0 0 120 120" style="enable-background:new 0 0 120 120;" xml:space="preserve">
<style type="text/css">
	.st0{fill-rule:evenodd;clip-rule:evenodd;fill:#92BCFF;fill-opacity:0.3;}
	.st1{opacity:0.3;fill:#92BCFF;}
</style>
<g>
	<path class="st0" d="M90.1,37.2c-6.9-6.9-18.1-6.9-25.1,0l-5.9,5.9l-4.8-4.8c-6.9-6.9-18.1-6.9-25.1,0s-6.9,18.1,0,25.1l17.4,17.4
		c0.4,0.4,0.7,0.7,1.1,1l11.5,11.5l12-12c0.2-0.2,0.4-0.3,0.5-0.5c0.2-0.2,0.3-0.4,0.5-0.5l18-18C97,55.4,97,44.2,90.1,37.2z"/>
	<path class="st1" d="M60,120C26.9,120,0,93.1,0,60S26.9,0,60,0s60,26.9,60,60S93.1,120,60,120z M60,5C29.7,5,5,29.7,5,60
		s24.7,55,55,55s55-24.7,55-55S90.3,5,60,5z"/>
</g>
</svg>
